<?xml version="1.0" encoding="UTF-8" standalone="no"?>
<svg
   width="65"
   height="66"
   viewBox="0 0 65 66"
   fill="none"
   version="1.1"
   id="svg4"
   sodipodi:docname="tunnel.svg"
   xml:space="preserve"
   inkscape:version="1.3.2 (091e20ef0f, 2023-11-25)"
   xmlns:inkscape="http://www.inkscape.org/namespaces/inkscape"
   xmlns:sodipodi="http://sodipodi.sourceforge.net/DTD/sodipodi-0.dtd"
   xmlns="http://www.w3.org/2000/svg"
   xmlns:svg="http://www.w3.org/2000/svg"><defs
     id="defs4" /><sodipodi:namedview
     id="namedview4"
     pagecolor="#ffffff"
     bordercolor="#999999"
     borderopacity="1"
     inkscape:showpageshadow="0"
     inkscape:pageopacity="0"
     inkscape:pagecheckerboard="0"
     inkscape:deskcolor="#d1d1d1"
     inkscape:zoom="6.265625"
     inkscape:cx="11.970075"
     inkscape:cy="31.760598"
     inkscape:window-width="1920"
     inkscape:window-height="1021"
     inkscape:window-x="0"
     inkscape:window-y="26"
     inkscape:window-maximized="1"
     inkscape:current-layer="svg4" /><path
     d="m 53.840903,54.487083 -42.6667,-13.3334 m 42.6667,13.3334 h -42.6667 v -13.3334 z m 0,0 v -21.3334 c 0,-11.782 -9.5512,-21.3333 -21.3334,-21.3333 -2.1181,0 -4.164,0.3087 -6.0952,0.8834 -8.8122,2.6227 -15.2381,10.7859 -15.2381,20.4499 v 8 z"
     stroke="#78350f"
     stroke-width="1.5"
     stroke-linecap="round"
     stroke-linejoin="round"
     id="path1" /><path
     d="m 43.174203,25.153883 v 2.6667"
     stroke="#78350f"
     stroke-width="1.5"
     stroke-linecap="round"
     id="path2" /><path
     d="m 32.507503,22.487383 v 2.6667"
     stroke="#78350f"
     stroke-width="1.5"
     stroke-linecap="round"
     id="path3" /><path
     d="m 21.840903,19.820383 v 2.6667"
     stroke="#78350f"
     stroke-width="1.5"
     stroke-linecap="round"
     id="path4" /><g
     style="fill:none"
     id="g4"
     transform="translate(25.39044,0.49065641)"><path
       opacity="0.5"
       d="M 21.9283,3.07106 C 28.228,-3.22859 38.9994,1.23309 38.9994,10.1421 V 29 c 0,5.5229 -4.4772,10 -10,10 H 10.1415 C 1.23244,39 -3.22922,28.2286 3.07043,21.9289 Z"
       fill="#15803d"
       id="path1-3" /></g></svg>
